<?xml version="1.0" standalone="no"?>
<!-- Creator: fig2dev Version 3.2.6a -->
<!-- CreationDate: 2020-02-17 09:11:02 -->
<!-- Magnification: 1.05 -->
<svg	xmlns="http://www.w3.org/2000/svg"
	xmlns:xlink="http://www.w3.org/1999/xlink"
	width="694pt" height="564pt"
	viewBox="2060 300 11008 8947">
<g fill="none">
<!-- Text -->
<text xml:space="preserve" x="4950" y="4815" fill="#000000" font-family="Helvetica" font-style="normal" font-weight="bold" font-size="216" text-anchor="middle">1</text>
<!-- Text -->
<text xml:space="preserve" x="8550" y="4815" fill="#000000" font-family="Helvetica" font-style="normal" font-weight="bold" font-size="216" text-anchor="middle">1</text>
<!-- Text -->
<text xml:space="preserve" x="6750" y="3015" fill="#000000" font-family="Helvetica" font-style="normal" font-weight="bold" font-size="216" text-anchor="middle">0</text>
<!-- Text -->
<text xml:space="preserve" x="3600" y="4815" fill="#000000" font-family="Helvetica" font-style="normal" font-weight="bold" font-size="216" text-anchor="middle">0</text>
<!-- Text -->
<text xml:space="preserve" x="6750" y="6615" fill="#000000" font-family="Helvetica" font-style="normal" font-weight="bold" font-size="216" text-anchor="middle">0</text>
<!-- Text -->
<text xml:space="preserve" x="9900" y="4815" fill="#000000" font-family="Helvetica" font-style="normal" font-weight="bold" font-size="216" text-anchor="middle">0</text>
<!-- Text -->
<text xml:space="preserve" x="3600" y="3690" fill="#000000" font-family="Helvetica" font-style="normal" font-weight="bold" font-size="216" text-anchor="middle">Ce:A</text>
<!-- Text -->
<text xml:space="preserve" x="8550" y="3690" fill="#000000" font-family="Helvetica" font-style="normal" font-weight="bold" font-size="216" text-anchor="middle">Re:r2</text>
<!-- Text -->
<text xml:space="preserve" x="6750" y="7965" fill="#000000" font-family="Helvetica" font-style="normal" font-weight="bold" font-size="216" text-anchor="middle">1</text>
<!-- Text -->
<text xml:space="preserve" x="6750" y="9090" fill="#000000" font-family="Helvetica" font-style="normal" font-weight="bold" font-size="216" text-anchor="middle">0</text>
<!-- Text -->
<text xml:space="preserve" x="6750" y="1665" fill="#000000" font-family="Helvetica" font-style="normal" font-weight="bold" font-size="216" text-anchor="middle">1</text>
<!-- Text -->
<text xml:space="preserve" x="6750" y="540" fill="#000000" font-family="Helvetica" font-style="normal" font-weight="bold" font-size="216" text-anchor="middle">0</text>
<!-- Text -->
<text xml:space="preserve" x="2475" y="4815" fill="#000000" font-family="Helvetica" font-style="normal" font-weight="bold" font-size="216" text-anchor="middle">1</text>
<!-- Text -->
<text xml:space="preserve" x="8325" y="540" fill="#000000" font-family="Helvetica" font-style="normal" font-weight="bold" font-size="216" text-anchor="middle">Ce:EM</text>
<!-- Text -->
<text xml:space="preserve" x="8325" y="9090" fill="#000000" font-family="Helvetica" font-style="normal" font-weight="bold" font-size="216" text-anchor="middle">Ce:CM</text>
<!-- Text -->
<text xml:space="preserve" x="4950" y="3690" fill="#000000" font-family="Helvetica" font-style="normal" font-weight="bold" font-size="216" text-anchor="middle">Re:r1</text>
<!-- Text -->
<text xml:space="preserve" x="8100" y="7965" fill="#000000" font-family="Helvetica" font-style="normal" font-weight="bold" font-size="216" text-anchor="middle">Re:rc</text>
<!-- Text -->
<text xml:space="preserve" x="8100" y="1665" fill="#000000" font-family="Helvetica" font-style="normal" font-weight="bold" font-size="216" text-anchor="middle">Re:re</text>
<!-- Text -->
<text xml:space="preserve" x="2475" y="3690" fill="#000000" font-family="Helvetica" font-style="normal" font-weight="bold" font-size="216" text-anchor="middle">Re:ra</text>
<!-- Text -->
<text xml:space="preserve" x="11250" y="4815" fill="#000000" font-family="Helvetica" font-style="normal" font-weight="bold" font-size="216" text-anchor="middle">1</text>
<!-- Text -->
<text xml:space="preserve" x="12600" y="4815" fill="#000000" font-family="Helvetica" font-style="normal" font-weight="bold" font-size="216" text-anchor="middle">0</text>
<!-- Text -->
<text xml:space="preserve" x="9900" y="3690" fill="#000000" font-family="Helvetica" font-style="normal" font-weight="bold" font-size="216" text-anchor="middle">Ce:B</text>
<!-- Text -->
<text xml:space="preserve" x="12600" y="3690" fill="#000000" font-family="Helvetica" font-style="normal" font-weight="bold" font-size="216" text-anchor="middle">Ce:B0</text>
<!-- Text -->
<text xml:space="preserve" x="11250" y="3690" fill="#000000" font-family="Helvetica" font-style="normal" font-weight="bold" font-size="216" text-anchor="middle">Re:r3</text>
<!-- Text -->
<text xml:space="preserve" x="4950" y="5940" fill="#000000" font-family="Helvetica" font-style="normal" font-weight="bold" font-size="216" text-anchor="middle">Ce:F</text>
<!-- Text -->
<text xml:space="preserve" x="8550" y="5940" fill="#000000" font-family="Helvetica" font-style="normal" font-weight="bold" font-size="216" text-anchor="middle">Ce:G</text>
<!-- Text -->
<text xml:space="preserve" x="6750" y="4140" fill="#000000" font-family="Helvetica" font-style="normal" font-weight="bold" font-size="216" text-anchor="middle">Ce:E</text>
<!-- Text -->
<text xml:space="preserve" x="6750" y="5490" fill="#000000" font-family="Helvetica" font-style="normal" font-weight="bold" font-size="216" text-anchor="middle">Ce:C</text>
<!-- Line -->
<polyline points=" 5175,4950 6525,6300 6300,6300"
	stroke="#000000" stroke-width="15px"/>
<!-- Line -->
<polyline points=" 6975,6300 8325,4950 8325,5175"
	stroke="#000000" stroke-width="15px"/>
<!-- Line -->
<polyline points=" 8325,4500 6975,3150 6975,3375"
	stroke="#000000" stroke-width="15px"/>
<!-- Line -->
<polyline points=" 6525,3150 5175,4500 5400,4500"
	stroke="#000000" stroke-width="15px"/>
<!-- Line -->
<polyline points=" 6750,3150 6750,3825 6975,3600"
	stroke="#000000" stroke-width="15px"/>
<!-- Line -->
<polyline points=" 6750,6300 6750,5625 6975,5850"
	stroke="#000000" stroke-width="15px"/>
<!-- Line -->
<polyline points=" 8775,4725 9675,4725 9450,4950"
	stroke="#000000" stroke-width="15px"/>
<!-- Line -->
<polyline points=" 9900,4500 9900,3825 10125,4050"
	stroke="#000000" stroke-width="15px"/>
<!-- Line -->
<polyline points=" 4950,4500 4950,3825 5175,4050"
	stroke="#000000" stroke-width="15px"/>
<!-- Line -->
<polyline points=" 8550,4500 8550,3825 8775,4050"
	stroke="#000000" stroke-width="15px"/>
<!-- Line -->
<polyline points=" 9675,4950 6975,7650 7200,7650"
	stroke="#ff0000" stroke-width="15px"/>
<!-- Line -->
<polyline points=" 6750,6750 6750,7650 6975,7425"
	stroke="#000000" stroke-width="15px"/>
<!-- Line -->
<polyline points=" 6750,8100 6750,8775 6975,8550"
	stroke="#000000" stroke-width="15px"/>
<!-- Line -->
<polyline points=" 6750,1800 6750,2700 6975,2475"
	stroke="#000000" stroke-width="15px"/>
<!-- Line -->
<polyline points=" 3600,4500 3600,3825 3825,4050"
	stroke="#000000" stroke-width="15px"/>
<!-- Line -->
<polyline points=" 6525,8775 2700,4950 2700,5175"
	stroke="#ff0000" stroke-width="15px"/>
<!-- Line -->
<polyline points=" 2700,4725 3375,4725 3150,4950"
	stroke="#000000" stroke-width="15px"/>
<!-- Line -->
<polyline points=" 2700,4500 6525,675 6525,900"
	stroke="#ff0000" stroke-width="15px"/>
<!-- Line -->
<polyline points=" 3825,4725 4725,4725 4500,4950"
	stroke="#000000" stroke-width="15px"/>
<!-- Line -->
<polyline points=" 6975,9000 7650,9000 7425,9225"
	stroke="#000000" stroke-width="15px"/>
<!-- Line -->
<polyline points=" 6975,450 7650,450 7425,675"
	stroke="#000000" stroke-width="15px"/>
<!-- Line -->
<polyline points=" 6975,7875 7650,7875 7425,8100"
	stroke="#000000" stroke-width="15px"/>
<!-- Line -->
<polyline points=" 6975,1575 7650,1575 7425,1800"
	stroke="#000000" stroke-width="15px"/>
<!-- Line -->
<polyline points=" 2475,4500 2475,3825 2700,4050"
	stroke="#000000" stroke-width="15px"/>
<!-- Line -->
<polyline points=" 6750,675 6750,1350 6975,1125"
	stroke="#000000" stroke-width="15px"/>
<!-- Line -->
<polyline points=" 10125,4725 11025,4725 10800,4950"
	stroke="#000000" stroke-width="15px"/>
<!-- Line -->
<polyline points=" 11475,4725 12375,4725 12150,4950"
	stroke="#000000" stroke-width="15px"/>
<!-- Line -->
<polyline points=" 12600,4500 12600,3825 12825,4050"
	stroke="#000000" stroke-width="15px"/>
<!-- Line -->
<polyline points=" 11250,4500 11250,3825 11475,4050"
	stroke="#000000" stroke-width="15px"/>
<!-- Line -->
<polyline points=" 9765,4950 7065,7650 7290,7650"
	stroke="#ff0000" stroke-width="15px"/>
<!-- Line -->
<polyline points=" 9585,4950 6885,7650 7110,7650"
	stroke="#ff0000" stroke-width="15px"/>
<!-- Line -->
<polyline points=" 4950,5625 4950,4950 5175,5175"
	stroke="#000000" stroke-width="15px"/>
<!-- Line -->
<polyline points=" 8550,4950 8550,5625 8775,5400"
	stroke="#000000" stroke-width="15px"/>
<!-- Line -->
<polyline points=" 9855,4950 7155,7650 7380,7650"
	stroke="#ff0000" stroke-width="15px"/>
<!-- Line -->
<polyline points=" 9495,4950 6795,7650 7020,7650"
	stroke="#ff0000" stroke-width="15px"/>
<!-- Line -->
<polyline points=" 6975,1800 9675,4500 9450,4500"
	stroke="#ff0000" stroke-width="15px"/>
<!-- Line -->
<polyline points=" 6885,1800 9585,4500 9360,4500"
	stroke="#ff0000" stroke-width="15px"/>
<!-- Line -->
<polyline points=" 6795,1800 9495,4500 9270,4500"
	stroke="#ff0000" stroke-width="15px"/>
<!-- Line -->
<polyline points=" 7065,1800 9765,4500 9540,4500"
	stroke="#ff0000" stroke-width="15px"/>
<!-- Line -->
<polyline points=" 7155,1800 9855,4500 9630,4500"
	stroke="#ff0000" stroke-width="15px"/>
</g>
</svg>
