<?xml version="1.0" standalone="no"?>
<!-- Creator: fig2dev Version 3.2.6a -->
<!-- CreationDate: 2019-10-09 09:33:55 -->
<!-- Magnification: 1.05 -->
<svg	xmlns="http://www.w3.org/2000/svg"
	xmlns:xlink="http://www.w3.org/1999/xlink"
	width="584pt" height="811pt"
	viewBox="-1147 1328 9269 12869">
<g fill="none">
<!-- Line -->
<rect x="-1125" y="1350" width="9225" height="4725" rx="105"
	stroke="#0000ff" stroke-width="15px" stroke-dasharray="60 60"/>
<!-- Line -->
<rect x="-1125" y="6300" width="9225" height="3825" rx="105"
	stroke="#0000ff" stroke-width="15px" stroke-dasharray="60 60"/>
<!-- Line -->
<rect x="-1125" y="10350" width="9225" height="3825" rx="105"
	stroke="#0000ff" stroke-width="15px" stroke-dasharray="60 60"/>
<!-- Text -->
<text xml:space="preserve" x="3375" y="3240" fill="#000000" font-family="Helvetica" font-style="normal" font-weight="bold" font-size="216" text-anchor="middle">0</text>
<!-- Text -->
<text xml:space="preserve" x="2025" y="4590" fill="#000000" font-family="Helvetica" font-style="normal" font-weight="bold" font-size="216" text-anchor="middle">1</text>
<!-- Text -->
<text xml:space="preserve" x="3375" y="5940" fill="#000000" font-family="Helvetica" font-style="normal" font-weight="bold" font-size="216" text-anchor="middle">0</text>
<!-- Text -->
<text xml:space="preserve" x="4725" y="4590" fill="#000000" font-family="Helvetica" font-style="normal" font-weight="bold" font-size="216" text-anchor="middle">1</text>
<!-- Text -->
<text xml:space="preserve" x="675" y="4590" fill="#000000" font-family="Helvetica" font-style="normal" font-weight="bold" font-size="216" text-anchor="middle">0</text>
<!-- Text -->
<text xml:space="preserve" x="6075" y="4590" fill="#000000" font-family="Helvetica" font-style="normal" font-weight="bold" font-size="216" text-anchor="middle">0</text>
<!-- Text -->
<text xml:space="preserve" x="3375" y="7290" fill="#000000" font-family="Helvetica" font-style="normal" font-weight="bold" font-size="216" text-anchor="middle">0</text>
<!-- Text -->
<text xml:space="preserve" x="2025" y="8640" fill="#000000" font-family="Helvetica" font-style="normal" font-weight="bold" font-size="216" text-anchor="middle">1</text>
<!-- Text -->
<text xml:space="preserve" x="3375" y="9990" fill="#000000" font-family="Helvetica" font-style="normal" font-weight="bold" font-size="216" text-anchor="middle">0</text>
<!-- Text -->
<text xml:space="preserve" x="4725" y="8640" fill="#000000" font-family="Helvetica" font-style="normal" font-weight="bold" font-size="216" text-anchor="middle">1</text>
<!-- Text -->
<text xml:space="preserve" x="675" y="8640" fill="#000000" font-family="Helvetica" font-style="normal" font-weight="bold" font-size="216" text-anchor="middle">0</text>
<!-- Text -->
<text xml:space="preserve" x="6075" y="8640" fill="#000000" font-family="Helvetica" font-style="normal" font-weight="bold" font-size="216" text-anchor="middle">0</text>
<!-- Text -->
<text xml:space="preserve" x="3375" y="11340" fill="#000000" font-family="Helvetica" font-style="normal" font-weight="bold" font-size="216" text-anchor="middle">0</text>
<!-- Text -->
<text xml:space="preserve" x="2025" y="12690" fill="#000000" font-family="Helvetica" font-style="normal" font-weight="bold" font-size="216" text-anchor="middle">1</text>
<!-- Text -->
<text xml:space="preserve" x="3375" y="14040" fill="#000000" font-family="Helvetica" font-style="normal" font-weight="bold" font-size="216" text-anchor="middle">0</text>
<!-- Text -->
<text xml:space="preserve" x="4725" y="12690" fill="#000000" font-family="Helvetica" font-style="normal" font-weight="bold" font-size="216" text-anchor="middle">1</text>
<!-- Text -->
<text xml:space="preserve" x="675" y="12690" fill="#000000" font-family="Helvetica" font-style="normal" font-weight="bold" font-size="216" text-anchor="middle">0</text>
<!-- Text -->
<text xml:space="preserve" x="6075" y="12690" fill="#000000" font-family="Helvetica" font-style="normal" font-weight="bold" font-size="216" text-anchor="middle">0</text>
<!-- Text -->
<text xml:space="preserve" x="-765" y="4590" fill="#000000" font-family="Helvetica" font-style="normal" font-weight="bold" font-size="216" text-anchor="middle">Ce:A</text>
<!-- Text -->
<text xml:space="preserve" x="7560" y="4590" fill="#000000" font-family="Helvetica" font-style="normal" font-weight="bold" font-size="216" text-anchor="middle">Ce:B</text>
<!-- Text -->
<text xml:space="preserve" x="3375" y="1800" fill="#000000" font-family="Helvetica" font-style="normal" font-weight="bold" font-size="216" text-anchor="middle">Ce:E0</text>
<!-- Text -->
<text xml:space="preserve" x="2025" y="3150" fill="#000000" font-family="Helvetica" font-style="normal" font-weight="bold" font-size="216" text-anchor="middle">Re:r01</text>
<!-- Text -->
<text xml:space="preserve" x="4725" y="3150" fill="#000000" font-family="Helvetica" font-style="normal" font-weight="bold" font-size="216" text-anchor="middle">Re:r02</text>
<!-- Text -->
<text xml:space="preserve" x="3375" y="4275" fill="#000000" font-family="Helvetica" font-style="normal" font-weight="bold" font-size="216" text-anchor="middle">Ce:E1</text>
<!-- Text -->
<text xml:space="preserve" x="2025" y="7200" fill="#000000" font-family="Helvetica" font-style="normal" font-weight="bold" font-size="216" text-anchor="middle">Re:r11</text>
<!-- Text -->
<text xml:space="preserve" x="3375" y="8325" fill="#000000" font-family="Helvetica" font-style="normal" font-weight="bold" font-size="216" text-anchor="middle">Ce:E2</text>
<!-- Text -->
<text xml:space="preserve" x="2025" y="11250" fill="#000000" font-family="Helvetica" font-style="normal" font-weight="bold" font-size="216" text-anchor="middle">Re:r21</text>
<!-- Text -->
<text xml:space="preserve" x="4725" y="11250" fill="#000000" font-family="Helvetica" font-style="normal" font-weight="bold" font-size="216" text-anchor="middle">Re:r22</text>
<!-- Text -->
<text xml:space="preserve" x="3375" y="12375" fill="#000000" font-family="Helvetica" font-style="normal" font-weight="bold" font-size="216" text-anchor="middle">Ce:E3</text>
<!-- Text -->
<text xml:space="preserve" x="4725" y="7200" fill="#000000" font-family="Helvetica" font-style="normal" font-weight="bold" font-size="216" text-anchor="middle">Re:r12</text>
<!-- Line -->
<polyline points=" -450,4500 450,4500 225,4725"
	stroke="#000000" stroke-width="15px"/>
<!-- Line -->
<polyline points=" 6300,4500 7200,4500 6975,4725"
	stroke="#000000" stroke-width="15px"/>
<!-- Line -->
<polyline points=" 3150,3375 2250,4275 2475,4275"
	stroke="#000000" stroke-width="15px"/>
<!-- Line -->
<polyline points=" 2250,4725 3150,5625 2925,5625"
	stroke="#000000" stroke-width="15px"/>
<!-- Line -->
<polyline points=" 3600,5625 4500,4725 4500,4950"
	stroke="#000000" stroke-width="15px"/>
<!-- Line -->
<polyline points=" 4500,4275 3600,3375 3600,3600"
	stroke="#000000" stroke-width="15px"/>
<!-- Line -->
<polyline points=" 3375,2925 3375,2025 3600,2250"
	stroke="#000000" stroke-width="15px"/>
<!-- Line -->
<polyline points=" 2025,4275 2025,3375 2250,3600"
	stroke="#000000" stroke-width="15px"/>
<!-- Line -->
<polyline points=" 4725,4275 4725,3375 4950,3600"
	stroke="#000000" stroke-width="15px"/>
<!-- Line -->
<polyline points=" 3375,5400 3375,4500 3600,4725"
	stroke="#000000" stroke-width="15px"/>
<!-- Line -->
<polyline points=" 900,4500 1800,4500 1575,4725"
	stroke="#000000" stroke-width="15px"/>
<!-- Line -->
<polyline points=" 4950,4500 5850,4500 5625,4725"
	stroke="#000000" stroke-width="15px"/>
<!-- Line -->
<polyline points=" 3150,7425 2250,8325 2475,8325"
	stroke="#000000" stroke-width="15px"/>
<!-- Line -->
<polyline points=" 2250,8775 3150,9675 2925,9675"
	stroke="#000000" stroke-width="15px"/>
<!-- Line -->
<polyline points=" 3600,9675 4500,8775 4500,9000"
	stroke="#000000" stroke-width="15px"/>
<!-- Line -->
<polyline points=" 4500,8325 3600,7425 3600,7650"
	stroke="#000000" stroke-width="15px"/>
<!-- Line -->
<polyline points=" 3375,6975 3375,6075 3600,6300"
	stroke="#000000" stroke-width="15px"/>
<!-- Line -->
<polyline points=" 2025,8325 2025,7425 2250,7650"
	stroke="#000000" stroke-width="15px"/>
<!-- Line -->
<polyline points=" 4725,8325 4725,7425 4950,7650"
	stroke="#000000" stroke-width="15px"/>
<!-- Line -->
<polyline points=" 3375,9450 3375,8550 3600,8775"
	stroke="#000000" stroke-width="15px"/>
<!-- Line -->
<polyline points=" 900,8550 1800,8550 1575,8775"
	stroke="#000000" stroke-width="15px"/>
<!-- Line -->
<polyline points=" 4950,8550 5850,8550 5625,8775"
	stroke="#000000" stroke-width="15px"/>
<!-- Line -->
<polyline points=" 3150,11475 2250,12375 2475,12375"
	stroke="#000000" stroke-width="15px"/>
<!-- Line -->
<polyline points=" 2250,12825 3150,13725 2925,13725"
	stroke="#000000" stroke-width="15px"/>
<!-- Line -->
<polyline points=" 3600,13725 4500,12825 4500,13050"
	stroke="#000000" stroke-width="15px"/>
<!-- Line -->
<polyline points=" 4500,12375 3600,11475 3600,11700"
	stroke="#000000" stroke-width="15px"/>
<!-- Line -->
<polyline points=" 3375,11025 3375,10125 3600,10350"
	stroke="#000000" stroke-width="15px"/>
<!-- Line -->
<polyline points=" 2025,12375 2025,11475 2250,11700"
	stroke="#000000" stroke-width="15px"/>
<!-- Line -->
<polyline points=" 4725,12375 4725,11475 4950,11700"
	stroke="#000000" stroke-width="15px"/>
<!-- Line -->
<polyline points=" 3375,13500 3375,12600 3600,12825"
	stroke="#000000" stroke-width="15px"/>
<!-- Line -->
<polyline points=" 900,12600 1800,12600 1575,12825"
	stroke="#000000" stroke-width="15px"/>
<!-- Line -->
<polyline points=" 4950,12600 5850,12600 5625,12825"
	stroke="#000000" stroke-width="15px"/>
<!-- Line -->
<polyline points=" 675,4725 675,8325 900,8100"
	stroke="#000000" stroke-width="15px"/>
<!-- Line -->
<polyline points=" 675,8775 675,12375 900,12150"
	stroke="#000000" stroke-width="15px"/>
<!-- Line -->
<polyline points=" 6075,8325 6075,4725 6300,4950"
	stroke="#000000" stroke-width="15px"/>
<!-- Line -->
<polyline points=" 6075,12375 6075,8775 6300,9000"
	stroke="#000000" stroke-width="15px"/>
</g>
</svg>
