<?xml version="1.0" standalone="no"?>
<!-- Creator: fig2dev Version 3.2.6a -->
<!-- CreationDate: 2020-09-16 09:35:22 -->
<!-- Magnification: 1.05 -->
<svg	xmlns="http://www.w3.org/2000/svg"
	xmlns:xlink="http://www.w3.org/1999/xlink"
	width="570pt" height="315pt"
	viewBox="203 -1597 9044 4994">
<g fill="none">
<!-- Line -->
<rect x="225" y="-1575" width="9000" height="4950" rx="105"
	stroke="#ffd600" stroke-width="15px"/>
<!-- Text -->
<text xml:space="preserve" x="5175" y="-135" fill="#000000" font-family="Helvetica" font-style="normal" font-weight="bold" font-size="216" text-anchor="middle">1</text>
<!-- Text -->
<g transform="translate(6210,-225) rotate(-270)" >
<text xml:space="preserve" x="0" y="0" fill="#000000" font-family="Helvetica" font-style="normal" font-weight="bold" font-size="216" text-anchor="middle">Re:r0</text>
</g><!-- Text -->
<text xml:space="preserve" x="675" y="990" fill="#000000" font-family="Helvetica" font-style="normal" font-weight="bold" font-size="216" text-anchor="middle">C:A</text>
<!-- Text -->
<text xml:space="preserve" x="7425" y="990" fill="#000000" font-family="Helvetica" font-style="normal" font-weight="bold" font-size="216" text-anchor="middle">C:B</text>
<!-- Text -->
<text xml:space="preserve" x="5175" y="-1260" fill="#000000" font-family="Helvetica" font-style="normal" font-weight="bold" font-size="216" text-anchor="middle">C:Inh</text>
<!-- Text -->
<text xml:space="preserve" x="7425" y="-135" fill="#000000" font-family="Helvetica" font-style="normal" font-weight="bold" font-size="216" text-anchor="middle">1</text>
<!-- Text -->
<text xml:space="preserve" x="7425" y="-1260" fill="#000000" font-family="Helvetica" font-style="normal" font-weight="bold" font-size="216" text-anchor="middle">C:Act</text>
<!-- Text -->
<text xml:space="preserve" x="8550" y="-1260" fill="#000000" font-family="Helvetica" font-style="normal" font-weight="bold" font-size="216" text-anchor="middle">C:E0</text>
<!-- Text -->
<text xml:space="preserve" x="8550" y="-135" fill="#000000" font-family="Helvetica" font-style="normal" font-weight="bold" font-size="216" text-anchor="middle">0</text>
<!-- Text -->
<text xml:space="preserve" x="1800" y="3240" fill="#000000" font-family="Helvetica" font-style="normal" font-weight="bold" font-size="216" text-anchor="middle">C:F</text>
<!-- Text -->
<text xml:space="preserve" x="6300" y="3240" fill="#000000" font-family="Helvetica" font-style="normal" font-weight="bold" font-size="216" text-anchor="middle">C:G</text>
<!-- Text -->
<text xml:space="preserve" x="1800" y="2115" fill="#000000" font-family="Helvetica" font-style="normal" font-weight="bold" font-size="216" text-anchor="middle">1</text>
<!-- Text -->
<text xml:space="preserve" x="4050" y="2115" fill="#000000" font-family="Helvetica" font-style="normal" font-weight="bold" font-size="216" text-anchor="middle">0</text>
<!-- Text -->
<text xml:space="preserve" x="4050" y="990" fill="#000000" font-family="Helvetica" font-style="normal" font-weight="bold" font-size="216" text-anchor="middle">C:C</text>
<!-- Text -->
<text xml:space="preserve" x="7425" y="2115" fill="#000000" font-family="Helvetica" font-style="normal" font-weight="bold" font-size="216" text-anchor="middle">0</text>
<!-- Text -->
<text xml:space="preserve" x="6300" y="2115" fill="#000000" font-family="Helvetica" font-style="normal" font-weight="bold" font-size="216" text-anchor="middle">1</text>
<!-- Text -->
<text xml:space="preserve" x="675" y="2115" fill="#000000" font-family="Helvetica" font-style="normal" font-weight="bold" font-size="216" text-anchor="middle">0</text>
<!-- Text -->
<g transform="translate(2835,2025) rotate(-270)" >
<text xml:space="preserve" x="0" y="0" fill="#000000" font-family="Helvetica" font-style="normal" font-weight="bold" font-size="216" text-anchor="middle">Re:r1</text>
</g><!-- Text -->
<g transform="translate(5085,2025) rotate(-270)" >
<text xml:space="preserve" x="0" y="0" fill="#000000" font-family="Helvetica" font-style="normal" font-weight="bold" font-size="216" text-anchor="middle">Re:r2</text>
</g><!-- Text -->
<text xml:space="preserve" x="4050" y="-1260" fill="#000000" font-family="Helvetica" font-style="normal" font-weight="bold" font-size="216" text-anchor="middle">C:E</text>
<!-- Text -->
<text xml:space="preserve" x="4050" y="-135" fill="#000000" font-family="Helvetica" font-style="normal" font-weight="bold" font-size="216" text-anchor="middle">0</text>
<!-- Line -->
<polyline points=" 8550,-450 8550,-1125 8775,-900"
	stroke="#000000" stroke-width="15px"/>
<!-- Line -->
<polyline points=" 6075,1800 4275,0 4275,225"
	stroke="#000000" stroke-width="15px"/>
<!-- Line -->
<polyline points=" 3825,0 2025,1800 2250,1800"
	stroke="#000000" stroke-width="15px"/>
<!-- Line -->
<polyline points=" 900,2025 1575,2025 1350,2250"
	stroke="#000000" stroke-width="15px"/>
<!-- Line -->
<polyline points=" 6525,2025 7200,2025 6975,2250"
	stroke="#000000" stroke-width="15px"/>
<!-- Line -->
<polyline points=" 4050,1800 4050,1125 4275,1350"
	stroke="#000000" stroke-width="15px"/>
<!-- Line -->
<polyline points=" 7425,1800 7425,1125 7650,1350"
	stroke="#000000" stroke-width="15px"/>
<!-- Line -->
<polyline points=" 3150,2025 3825,2025 3600,2250"
	stroke="#000000" stroke-width="15px"/>
<!-- Line -->
<polyline points=" 4275,2025 4950,2025 4725,2250"
	stroke="#000000" stroke-width="15px"/>
<!-- Line -->
<polyline points=" 5400,2025 6075,2025 5850,2250"
	stroke="#000000" stroke-width="15px"/>
<!-- Line -->
<polyline points=" 2025,2025 2700,2025 2475,2250"
	stroke="#000000" stroke-width="15px"/>
<!-- Line -->
<polyline points=" 675,1800 675,1125 900,1350"
	stroke="#000000" stroke-width="15px"/>
<!-- Line -->
<polyline points=" 4050,-450 4050,-1125 4275,-900"
	stroke="#000000" stroke-width="15px"/>
<!-- Line -->
<polyline points=" 4275,-225 4950,-225 4725,0"
	stroke="#000000" stroke-width="15px"/>
<!-- Line -->
<polyline points=" 5400,-225 6075,-225 5850,0"
	stroke="#000000" stroke-width="15px"/>
<!-- Line -->
<polyline points=" 6525,-225 7200,-225 6975,0"
	stroke="#000000" stroke-width="15px"/>
<!-- Line -->
<polyline points=" 5175,-1125 5175,-450 5400,-675"
	stroke="#000000" stroke-width="15px"/>
<!-- Line -->
<polyline points=" 7425,-450 7425,-1125 7650,-900"
	stroke="#000000" stroke-width="15px"/>
<!-- Line -->
<polyline points=" 7650,-225 8325,-225 8100,0"
	stroke="#000000" stroke-width="15px"/>
<!-- Line -->
<polyline points=" 1800,2925 1800,2250 2025,2475"
	stroke="#000000" stroke-width="15px"/>
<!-- Line -->
<polyline points=" 6300,2250 6300,2925 6525,2700"
	stroke="#000000" stroke-width="15px"/>
</g>
</svg>
