<?xml version="1.0" standalone="no"?>
<!-- Creator: fig2dev Version 3.2.6a -->
<!-- CreationDate: 2019-10-29 12:08:33 -->
<!-- Magnification: 1.05 -->
<svg	xmlns="http://www.w3.org/2000/svg"
	xmlns:xlink="http://www.w3.org/1999/xlink"
	width="502pt" height="487pt"
	viewBox="538 3021 7969 7726">
<g fill="none">
<!-- Line -->
<polyline points=" 3600,10125 4275,10125 4050,10350"
	stroke="#000000" stroke-width="15px"/>
<!-- Line -->
<polyline points=" 4725,10125 5400,10125 5175,10350"
	stroke="#000000" stroke-width="15px"/>
<!-- Line -->
<polyline points=" 5400,3375 4725,3375 4950,3600"
	stroke="#000000" stroke-width="15px"/>
<!-- Line -->
<polyline points=" 4275,3375 3600,3375 3825,3600"
	stroke="#000000" stroke-width="15px"/>
<!-- Line -->
<polyline points=" 3375,3600 3375,4275 3600,4050"
	stroke="#000000" stroke-width="15px"/>
<!-- Line -->
<polyline points=" 3375,4725 3375,5400 3600,5175"
	stroke="#000000" stroke-width="15px"/>
<!-- Line -->
<polyline points=" 3375,5850 3375,6525 3600,6300"
	stroke="#000000" stroke-width="15px"/>
<!-- Line -->
<polyline points=" 2475,4500 3150,4500 2925,4725"
	stroke="#000000" stroke-width="15px"/>
<!-- Line -->
<polyline points=" 3375,8100 3375,8775 3600,8550"
	stroke="#000000" stroke-width="15px"/>
<!-- Line -->
<polyline points=" 3375,9225 3375,9900 3600,9675"
	stroke="#000000" stroke-width="15px"/>
<!-- Line -->
<polyline points=" 2475,7875 3150,7875 2925,8100"
	stroke="#000000" stroke-width="15px"/>
<!-- Line -->
<polyline points=" 5625,9900 5625,9225 5850,9450"
	stroke="#000000" stroke-width="15px"/>
<!-- Line -->
<polyline points=" 5625,8775 5625,8100 5850,8325"
	stroke="#000000" stroke-width="15px"/>
<!-- Line -->
<polyline points=" 5625,7650 5625,6975 5850,7200"
	stroke="#000000" stroke-width="15px"/>
<!-- Line -->
<polyline points=" 5625,6525 5625,5850 5850,6075"
	stroke="#000000" stroke-width="15px"/>
<!-- Line -->
<polyline points=" 5625,5400 5625,4725 5850,4950"
	stroke="#000000" stroke-width="15px"/>
<!-- Line -->
<polyline points=" 5625,4275 5625,3600 5850,3825"
	stroke="#000000" stroke-width="15px"/>
<!-- Line -->
<polyline points=" 3375,6975 3375,7650 3600,7425"
	stroke="#000000" stroke-width="15px"/>
<!-- Line -->
<polyline points=" 6975,4500 7650,4500 7425,4725"
	stroke="#000000" stroke-width="15px"/>
<!-- Line -->
<polyline points=" 2025,4500 1350,4500 1575,4725"
	stroke="#000000" stroke-width="15px"/>
<!-- Line -->
<polyline points=" 2025,7875 1350,7875 1575,8100"
	stroke="#000000" stroke-width="15px"/>
<!-- Line -->
<polyline points=" 5850,4500 6525,4500 6300,4725"
	stroke="#000000" stroke-width="15px"/>
<!-- Line -->
<polyline points=" 6975,7875 7650,7875 7425,8100"
	stroke="#000000" stroke-width="15px"/>
<!-- Line -->
<polyline points=" 5850,7875 6525,7875 6300,8100"
	stroke="#000000" stroke-width="15px"/>
<!-- Line -->
<polyline points=" 3150,3375 2475,3375 2700,3600"
	stroke="#000000" stroke-width="15px"/>
<!-- Line -->
<polyline points=" 3150,6750 2475,6750 2700,6975"
	stroke="#000000" stroke-width="15px"/>
<!-- Line -->
<polyline points=" 3150,10125 2475,10125 2700,10350"
	stroke="#000000" stroke-width="15px"/>
<!-- Line -->
<polyline points=" 5850,10125 6525,10125 6300,10350"
	stroke="#000000" stroke-width="15px"/>
<!-- Line -->
<polyline points=" 5850,6750 6525,6750 6300,6975"
	stroke="#000000" stroke-width="15px"/>
<!-- Line -->
<polyline points=" 5850,3375 6525,3375 6300,3600"
	stroke="#000000" stroke-width="15px"/>
<!-- Line -->
<polyline points=" 3600,6750 4275,6750 4050,6975"
	stroke="#000000" stroke-width="15px"/>
<!-- Line -->
<polyline points=" 4725,6750 5400,6750 5175,6975"
	stroke="#000000" stroke-width="15px"/>
<!-- Text -->
<g transform="translate(4590,3375) rotate(-90)" >
<text xml:space="preserve" x="0" y="0" fill="#000000" font-family="Helvetica" font-style="normal" font-weight="bold" font-size="216" text-anchor="middle">Re:e</text>
</g><!-- Text -->
<text xml:space="preserve" x="3375" y="3465" fill="#000000" font-family="Helvetica" font-style="normal" font-weight="bold" font-size="216" text-anchor="middle">0</text>
<!-- Text -->
<text xml:space="preserve" x="3375" y="4590" fill="#000000" font-family="Helvetica" font-style="normal" font-weight="bold" font-size="216" text-anchor="middle">1</text>
<!-- Text -->
<text xml:space="preserve" x="3375" y="5715" fill="#000000" font-family="Helvetica" font-style="normal" font-weight="bold" font-size="216" text-anchor="middle">Re:em</text>
<!-- Text -->
<text xml:space="preserve" x="3375" y="6840" fill="#000000" font-family="Helvetica" font-style="normal" font-weight="bold" font-size="216" text-anchor="middle">0</text>
<!-- Text -->
<text xml:space="preserve" x="3375" y="7965" fill="#000000" font-family="Helvetica" font-style="normal" font-weight="bold" font-size="216" text-anchor="middle">1</text>
<!-- Text -->
<text xml:space="preserve" x="3375" y="9090" fill="#000000" font-family="Helvetica" font-style="normal" font-weight="bold" font-size="216" text-anchor="middle">Re:lem</text>
<!-- Text -->
<text xml:space="preserve" x="3375" y="10230" fill="#000000" font-family="Helvetica" font-style="normal" font-weight="bold" font-size="216" text-anchor="middle">0</text>
<!-- Text -->
<text xml:space="preserve" x="5625" y="10230" fill="#000000" font-family="Helvetica" font-style="normal" font-weight="bold" font-size="216" text-anchor="middle">0</text>
<!-- Text -->
<text xml:space="preserve" x="5625" y="6855" fill="#000000" font-family="Helvetica" font-style="normal" font-weight="bold" font-size="216" text-anchor="middle">0</text>
<!-- Text -->
<text xml:space="preserve" x="5625" y="3480" fill="#000000" font-family="Helvetica" font-style="normal" font-weight="bold" font-size="216" text-anchor="middle">0</text>
<!-- Text -->
<text xml:space="preserve" x="5625" y="9120" fill="#000000" font-family="Helvetica" font-style="normal" font-weight="bold" font-size="216" text-anchor="middle">Re:esm</text>
<!-- Text -->
<text xml:space="preserve" x="5625" y="7980" fill="#000000" font-family="Helvetica" font-style="normal" font-weight="bold" font-size="216" text-anchor="middle">1</text>
<!-- Text -->
<text xml:space="preserve" x="5625" y="5745" fill="#000000" font-family="Helvetica" font-style="normal" font-weight="bold" font-size="216" text-anchor="middle">Re:es</text>
<!-- Text -->
<text xml:space="preserve" x="5625" y="4605" fill="#000000" font-family="Helvetica" font-style="normal" font-weight="bold" font-size="216" text-anchor="middle">1</text>
<!-- Text -->
<g transform="translate(4620,10125) rotate(-90)" >
<text xml:space="preserve" x="0" y="0" fill="#000000" font-family="Helvetica" font-style="normal" font-weight="bold" font-size="216" text-anchor="middle">Re:lesm</text>
</g><!-- Text -->
<text xml:space="preserve" x="8100" y="4620" fill="#000000" font-family="Helvetica" font-style="normal" font-weight="bold" font-size="216" text-anchor="middle">C:Mo</text>
<!-- Text -->
<text xml:space="preserve" x="8100" y="7995" fill="#000000" font-family="Helvetica" font-style="normal" font-weight="bold" font-size="216" text-anchor="middle">C:Lo</text>
<!-- Text -->
<text xml:space="preserve" x="900" y="4590" fill="#000000" font-family="Helvetica" font-style="normal" font-weight="bold" font-size="216" text-anchor="middle">C:Mi</text>
<!-- Text -->
<text xml:space="preserve" x="900" y="7965" fill="#000000" font-family="Helvetica" font-style="normal" font-weight="bold" font-size="216" text-anchor="middle">C:Li</text>
<!-- Text -->
<text xml:space="preserve" x="2340" y="3465" fill="#000000" font-family="Helvetica" font-style="normal" font-weight="bold" font-size="216" text-anchor="end">C:E</text>
<!-- Text -->
<text xml:space="preserve" x="2340" y="10215" fill="#000000" font-family="Helvetica" font-style="normal" font-weight="bold" font-size="216" text-anchor="end">C:LEM</text>
<!-- Text -->
<text xml:space="preserve" x="2340" y="6840" fill="#000000" font-family="Helvetica" font-style="normal" font-weight="bold" font-size="216" text-anchor="end">C:EM</text>
<!-- Text -->
<text xml:space="preserve" x="6660" y="10245" fill="#000000" font-family="Helvetica" font-style="normal" font-weight="bold" font-size="216" text-anchor="start">C:LEsM</text>
<!-- Text -->
<text xml:space="preserve" x="6660" y="6870" fill="#000000" font-family="Helvetica" font-style="normal" font-weight="bold" font-size="216" text-anchor="start">C:EsM</text>
<!-- Text -->
<text xml:space="preserve" x="6660" y="3495" fill="#000000" font-family="Helvetica" font-style="normal" font-weight="bold" font-size="216" text-anchor="start">C:Es</text>
<!-- Text -->
<text xml:space="preserve" x="2250" y="4590" fill="#000000" font-family="Helvetica" font-style="normal" font-weight="bold" font-size="216" text-anchor="middle">0</text>
<!-- Text -->
<text xml:space="preserve" x="2250" y="7965" fill="#000000" font-family="Helvetica" font-style="normal" font-weight="bold" font-size="216" text-anchor="middle">0</text>
<!-- Text -->
<text xml:space="preserve" x="6750" y="7965" fill="#000000" font-family="Helvetica" font-style="normal" font-weight="bold" font-size="216" text-anchor="middle">0</text>
<!-- Text -->
<text xml:space="preserve" x="6750" y="4590" fill="#000000" font-family="Helvetica" font-style="normal" font-weight="bold" font-size="216" text-anchor="middle">0</text>
<!-- Text -->
<g transform="translate(4620,6750) rotate(-90)" >
<text xml:space="preserve" x="0" y="0" fill="#000000" font-family="Helvetica" font-style="normal" font-weight="bold" font-size="216" text-anchor="middle">Re:slip</text>
</g></g>
</svg>
