<?xml version="1.0" standalone="no"?>
<!-- Creator: fig2dev Version 3.2.6a -->
<!-- CreationDate: 2020-07-16 14:39:53 -->
<!-- Magnification: 1.05 -->
<svg	xmlns="http://www.w3.org/2000/svg"
	xmlns:xlink="http://www.w3.org/1999/xlink"
	width="507pt" height="413pt"
	viewBox="733 1650 8040 6555">
<g fill="none">
<!-- Text -->
<text xml:space="preserve" x="6075" y="5040" fill="#000000" font-family="Helvetica" font-style="normal" font-weight="bold" font-size="216" text-anchor="middle">Re:r2</text>
<!-- Text -->
<text xml:space="preserve" x="7605" y="6615" fill="#000000" font-family="Helvetica" font-style="normal" font-weight="bold" font-size="216" text-anchor="start">C:H2O2</text>
<!-- Text -->
<text xml:space="preserve" x="1125" y="3465" fill="#000000" font-family="Helvetica" font-style="normal" font-weight="bold" font-size="216" text-anchor="middle">C:O2</text>
<!-- Text -->
<text xml:space="preserve" x="2925" y="3465" fill="#000000" font-family="Helvetica" font-style="normal" font-weight="bold" font-size="216" text-anchor="middle">1</text>
<!-- Text -->
<text xml:space="preserve" x="2925" y="5040" fill="#000000" font-family="Helvetica" font-style="normal" font-weight="bold" font-size="216" text-anchor="middle">Re:r1</text>
<!-- Text -->
<text xml:space="preserve" x="2925" y="6615" fill="#000000" font-family="Helvetica" font-style="normal" font-weight="bold" font-size="216" text-anchor="middle">1</text>
<!-- Text -->
<text xml:space="preserve" x="4500" y="6615" fill="#000000" font-family="Helvetica" font-style="normal" font-weight="bold" font-size="216" text-anchor="middle">0</text>
<!-- Text -->
<text xml:space="preserve" x="4500" y="8190" fill="#000000" font-family="Helvetica" font-style="normal" font-weight="bold" font-size="216" text-anchor="middle">C:Mn3</text>
<!-- Text -->
<text xml:space="preserve" x="6075" y="6615" fill="#000000" font-family="Helvetica" font-style="normal" font-weight="bold" font-size="216" text-anchor="middle">1</text>
<!-- Text -->
<text xml:space="preserve" x="4500" y="5040" fill="#000000" font-family="Helvetica" font-style="normal" font-weight="bold" font-size="216" text-anchor="middle">0</text>
<!-- Text -->
<text xml:space="preserve" x="4500" y="4140" fill="#000000" font-family="Helvetica" font-style="normal" font-weight="bold" font-size="216" text-anchor="middle">C:sO2</text>
<!-- Text -->
<text xml:space="preserve" x="4500" y="3465" fill="#000000" font-family="Helvetica" font-style="normal" font-weight="bold" font-size="216" text-anchor="middle">0</text>
<!-- Text -->
<text xml:space="preserve" x="6075" y="3465" fill="#000000" font-family="Helvetica" font-style="normal" font-weight="bold" font-size="216" text-anchor="middle">1</text>
<!-- Text -->
<text xml:space="preserve" x="7650" y="3465" fill="#000000" font-family="Helvetica" font-style="normal" font-weight="bold" font-size="216" text-anchor="middle">0</text>
<!-- Text -->
<text xml:space="preserve" x="7650" y="5040" fill="#000000" font-family="Helvetica" font-style="normal" font-weight="bold" font-size="216" text-anchor="middle">C:Hx</text>
<!-- Text -->
<text xml:space="preserve" x="4500" y="1890" fill="#000000" font-family="Helvetica" font-style="normal" font-weight="bold" font-size="216" text-anchor="middle">C:Mn2</text>
<!-- Line -->
<polyline points=" 3150,3375 4275,3375 4050,3600"
	stroke="#000000" stroke-width="15px"/>
<!-- Line -->
<polyline points=" 4725,3375 5850,3375 5625,3600"
	stroke="#000000" stroke-width="15px"/>
<!-- Line -->
<polyline points=" 2925,4725 2925,3600 3150,3825"
	stroke="#000000" stroke-width="15px"/>
<!-- Line -->
<polyline points=" 2925,6300 2925,5175 3150,5400"
	stroke="#000000" stroke-width="15px"/>
<!-- Line -->
<polyline points=" 5850,6525 4725,6525 4950,6750"
	stroke="#000000" stroke-width="15px"/>
<!-- Line -->
<polyline points=" 4275,6525 3150,6525 3375,6750"
	stroke="#000000" stroke-width="15px"/>
<!-- Line -->
<polyline points=" 4725,4725 5850,3600 5850,3825"
	stroke="#000000" stroke-width="15px"/>
<!-- Line -->
<polyline points=" 4275,5175 3150,6300 3375,6300"
	stroke="#000000" stroke-width="15px"/>
<!-- Line -->
<polyline points=" 4500,4725 4500,4275 4725,4500"
	stroke="#000000" stroke-width="15px"/>
<!-- Line -->
<polyline points=" 6075,5175 6075,6300 6300,6075"
	stroke="#000000" stroke-width="15px"/>
<!-- Line -->
<polyline points=" 6075,3600 6075,4725 6300,4500"
	stroke="#000000" stroke-width="15px"/>
<!-- Line -->
<polyline points=" 7425,3285 6300,3285 6525,3510"
	stroke="#000000" stroke-width="15px"/>
<!-- Line -->
<polyline points=" 7425,3465 6300,3465 6525,3690"
	stroke="#000000" stroke-width="15px"/>
<!-- Line -->
<polyline points=" 7650,3600 7650,4725 7875,4500"
	stroke="#000000" stroke-width="15px"/>
<!-- Line -->
<polyline points=" 6300,6525 7425,6525 7200,6750"
	stroke="#000000" stroke-width="15px"/>
<!-- Line -->
<polyline points=" 2700,3375 1575,3375 1800,3600"
	stroke="#000000" stroke-width="15px"/>
<!-- Line -->
<polyline points=" 4500,3150 4500,2025 4725,2250"
	stroke="#000000" stroke-width="15px"/>
<!-- Line -->
<polyline points=" 4500,6750 4500,7875 4725,7650"
	stroke="#000000" stroke-width="15px"/>
</g>
</svg>
