<?xml version="1.0" standalone="no"?>
<!-- Creator: fig2dev Version 3.2.6a -->
<!-- CreationDate: 2020-04-01 14:41:34 -->
<!-- Magnification: 1.05 -->
<svg	xmlns="http://www.w3.org/2000/svg"
	xmlns:xlink="http://www.w3.org/1999/xlink"
	width="1022pt" height="1043pt"
	viewBox="4 -690 16218 16545">
<g fill="none">
<!-- Line -->
<rect x="9900" y="9450" width="6300" height="3825" rx="105"
	stroke="#0000ff" stroke-width="15px" stroke-dasharray="60 60"/>
<!-- Line -->
<rect x="9900" y="5400" width="6300" height="3825" rx="105"
	stroke="#0000ff" stroke-width="15px" stroke-dasharray="60 60"/>
<!-- Line -->
<rect x="1800" y="1350" width="6300" height="3825" rx="105"
	stroke="#0000ff" stroke-width="15px" stroke-dasharray="60 60"/>
<!-- Line -->
<rect x="9900" y="1350" width="6300" height="3825" rx="105"
	stroke="#0000ff" stroke-width="15px" stroke-dasharray="60 60"/>
<!-- Text -->
<text xml:space="preserve" x="11700" y="3690" fill="#000000" font-family="Helvetica" font-style="normal" font-weight="bold" font-size="216" text-anchor="middle">1</text>
<!-- Text -->
<text xml:space="preserve" x="13050" y="5040" fill="#000000" font-family="Helvetica" font-style="normal" font-weight="bold" font-size="216" text-anchor="middle">0</text>
<!-- Text -->
<text xml:space="preserve" x="14400" y="3690" fill="#000000" font-family="Helvetica" font-style="normal" font-weight="bold" font-size="216" text-anchor="middle">1</text>
<!-- Text -->
<text xml:space="preserve" x="10350" y="3690" fill="#000000" font-family="Helvetica" font-style="normal" font-weight="bold" font-size="216" text-anchor="middle">0</text>
<!-- Text -->
<text xml:space="preserve" x="15750" y="3690" fill="#000000" font-family="Helvetica" font-style="normal" font-weight="bold" font-size="216" text-anchor="middle">0</text>
<!-- Text -->
<text xml:space="preserve" x="13050" y="6390" fill="#000000" font-family="Helvetica" font-style="normal" font-weight="bold" font-size="216" text-anchor="middle">0</text>
<!-- Text -->
<text xml:space="preserve" x="11700" y="7740" fill="#000000" font-family="Helvetica" font-style="normal" font-weight="bold" font-size="216" text-anchor="middle">1</text>
<!-- Text -->
<text xml:space="preserve" x="13050" y="9090" fill="#000000" font-family="Helvetica" font-style="normal" font-weight="bold" font-size="216" text-anchor="middle">0</text>
<!-- Text -->
<text xml:space="preserve" x="14400" y="7740" fill="#000000" font-family="Helvetica" font-style="normal" font-weight="bold" font-size="216" text-anchor="middle">1</text>
<!-- Text -->
<text xml:space="preserve" x="10350" y="7740" fill="#000000" font-family="Helvetica" font-style="normal" font-weight="bold" font-size="216" text-anchor="middle">0</text>
<!-- Text -->
<text xml:space="preserve" x="15750" y="7740" fill="#000000" font-family="Helvetica" font-style="normal" font-weight="bold" font-size="216" text-anchor="middle">0</text>
<!-- Text -->
<text xml:space="preserve" x="13050" y="10440" fill="#000000" font-family="Helvetica" font-style="normal" font-weight="bold" font-size="216" text-anchor="middle">0</text>
<!-- Text -->
<text xml:space="preserve" x="11700" y="11790" fill="#000000" font-family="Helvetica" font-style="normal" font-weight="bold" font-size="216" text-anchor="middle">1</text>
<!-- Text -->
<text xml:space="preserve" x="13050" y="13140" fill="#000000" font-family="Helvetica" font-style="normal" font-weight="bold" font-size="216" text-anchor="middle">0</text>
<!-- Text -->
<text xml:space="preserve" x="14400" y="11790" fill="#000000" font-family="Helvetica" font-style="normal" font-weight="bold" font-size="216" text-anchor="middle">1</text>
<!-- Text -->
<text xml:space="preserve" x="10350" y="11790" fill="#000000" font-family="Helvetica" font-style="normal" font-weight="bold" font-size="216" text-anchor="middle">0</text>
<!-- Text -->
<text xml:space="preserve" x="15750" y="11790" fill="#000000" font-family="Helvetica" font-style="normal" font-weight="bold" font-size="216" text-anchor="middle">0</text>
<!-- Text -->
<text xml:space="preserve" x="13050" y="2340" fill="#000000" font-family="Helvetica" font-style="normal" font-weight="bold" font-size="216" text-anchor="middle">0</text>
<!-- Text -->
<text xml:space="preserve" x="13050" y="990" fill="#000000" font-family="Helvetica" font-style="normal" font-weight="bold" font-size="216" text-anchor="middle">0</text>
<!-- Text -->
<text xml:space="preserve" x="3600" y="3690" fill="#000000" font-family="Helvetica" font-style="normal" font-weight="bold" font-size="216" text-anchor="middle">1</text>
<!-- Text -->
<text xml:space="preserve" x="4950" y="5040" fill="#000000" font-family="Helvetica" font-style="normal" font-weight="bold" font-size="216" text-anchor="middle">0</text>
<!-- Text -->
<text xml:space="preserve" x="6300" y="3690" fill="#000000" font-family="Helvetica" font-style="normal" font-weight="bold" font-size="216" text-anchor="middle">1</text>
<!-- Text -->
<text xml:space="preserve" x="2250" y="3690" fill="#000000" font-family="Helvetica" font-style="normal" font-weight="bold" font-size="216" text-anchor="middle">0</text>
<!-- Text -->
<text xml:space="preserve" x="7650" y="3690" fill="#000000" font-family="Helvetica" font-style="normal" font-weight="bold" font-size="216" text-anchor="middle">0</text>
<!-- Text -->
<text xml:space="preserve" x="4950" y="6390" fill="#000000" font-family="Helvetica" font-style="normal" font-weight="bold" font-size="216" text-anchor="middle">0</text>
<!-- Text -->
<text xml:space="preserve" x="3600" y="7740" fill="#000000" font-family="Helvetica" font-style="normal" font-weight="bold" font-size="216" text-anchor="middle">1</text>
<!-- Text -->
<text xml:space="preserve" x="4950" y="9090" fill="#000000" font-family="Helvetica" font-style="normal" font-weight="bold" font-size="216" text-anchor="middle">0</text>
<!-- Text -->
<text xml:space="preserve" x="6300" y="7740" fill="#000000" font-family="Helvetica" font-style="normal" font-weight="bold" font-size="216" text-anchor="middle">1</text>
<!-- Text -->
<text xml:space="preserve" x="2250" y="7740" fill="#000000" font-family="Helvetica" font-style="normal" font-weight="bold" font-size="216" text-anchor="middle">0</text>
<!-- Text -->
<text xml:space="preserve" x="7650" y="7740" fill="#000000" font-family="Helvetica" font-style="normal" font-weight="bold" font-size="216" text-anchor="middle">0</text>
<!-- Text -->
<text xml:space="preserve" x="4950" y="10440" fill="#000000" font-family="Helvetica" font-style="normal" font-weight="bold" font-size="216" text-anchor="middle">0</text>
<!-- Text -->
<text xml:space="preserve" x="3600" y="11790" fill="#000000" font-family="Helvetica" font-style="normal" font-weight="bold" font-size="216" text-anchor="middle">1</text>
<!-- Text -->
<text xml:space="preserve" x="4950" y="13140" fill="#000000" font-family="Helvetica" font-style="normal" font-weight="bold" font-size="216" text-anchor="middle">0</text>
<!-- Text -->
<text xml:space="preserve" x="6300" y="11790" fill="#000000" font-family="Helvetica" font-style="normal" font-weight="bold" font-size="216" text-anchor="middle">1</text>
<!-- Text -->
<text xml:space="preserve" x="2250" y="11790" fill="#000000" font-family="Helvetica" font-style="normal" font-weight="bold" font-size="216" text-anchor="middle">0</text>
<!-- Text -->
<text xml:space="preserve" x="7650" y="11790" fill="#000000" font-family="Helvetica" font-style="normal" font-weight="bold" font-size="216" text-anchor="middle">0</text>
<!-- Text -->
<text xml:space="preserve" x="4950" y="2340" fill="#000000" font-family="Helvetica" font-style="normal" font-weight="bold" font-size="216" text-anchor="middle">0</text>
<!-- Text -->
<text xml:space="preserve" x="9000" y="990" fill="#000000" font-family="Helvetica" font-style="normal" font-weight="bold" font-size="216" text-anchor="middle">1</text>
<!-- Text -->
<text xml:space="preserve" x="4950" y="990" fill="#000000" font-family="Helvetica" font-style="normal" font-weight="bold" font-size="216" text-anchor="middle">0</text>
<!-- Text -->
<text xml:space="preserve" x="2250" y="13140" fill="#000000" font-family="Helvetica" font-style="normal" font-weight="bold" font-size="216" text-anchor="middle">1</text>
<!-- Text -->
<text xml:space="preserve" x="2250" y="14490" fill="#000000" font-family="Helvetica" font-style="normal" font-weight="bold" font-size="216" text-anchor="middle">0</text>
<!-- Text -->
<text xml:space="preserve" x="10350" y="14490" fill="#000000" font-family="Helvetica" font-style="normal" font-weight="bold" font-size="216" text-anchor="middle">0</text>
<!-- Text -->
<text xml:space="preserve" x="7650" y="14490" fill="#000000" font-family="Helvetica" font-style="normal" font-weight="bold" font-size="216" text-anchor="middle">0</text>
<!-- Text -->
<text xml:space="preserve" x="15750" y="14490" fill="#000000" font-family="Helvetica" font-style="normal" font-weight="bold" font-size="216" text-anchor="middle">0</text>
<!-- Text -->
<text xml:space="preserve" x="2160" y="15840" fill="#000000" font-family="Helvetica" font-style="normal" font-weight="bold" font-size="216" text-anchor="middle">Ce:A</text>
<!-- Text -->
<text xml:space="preserve" x="7785" y="15840" fill="#000000" font-family="Helvetica" font-style="normal" font-weight="bold" font-size="216" text-anchor="middle">Ce:B</text>
<!-- Text -->
<text xml:space="preserve" x="10350" y="13140" fill="#000000" font-family="Helvetica" font-style="normal" font-weight="bold" font-size="216" text-anchor="middle">1</text>
<!-- Text -->
<text xml:space="preserve" x="1035" y="13140" fill="#000000" font-family="Helvetica" font-style="normal" font-weight="bold" font-size="216" text-anchor="end">Ce:Act</text>
<!-- Text -->
<text xml:space="preserve" x="9135" y="13140" fill="#000000" font-family="Helvetica" font-style="normal" font-weight="bold" font-size="216" text-anchor="end">Ce:Inh</text>
<!-- Text -->
<text xml:space="preserve" x="11700" y="2250" fill="#000000" font-family="Helvetica" font-style="normal" font-weight="bold" font-size="216" text-anchor="middle">Re:t01</text>
<!-- Text -->
<text xml:space="preserve" x="14400" y="2250" fill="#000000" font-family="Helvetica" font-style="normal" font-weight="bold" font-size="216" text-anchor="middle">Re:t02</text>
<!-- Text -->
<text xml:space="preserve" x="13050" y="3375" fill="#000000" font-family="Helvetica" font-style="normal" font-weight="bold" font-size="216" text-anchor="middle">Ce:T1</text>
<!-- Text -->
<text xml:space="preserve" x="11700" y="6300" fill="#000000" font-family="Helvetica" font-style="normal" font-weight="bold" font-size="216" text-anchor="middle">Re:t11</text>
<!-- Text -->
<text xml:space="preserve" x="13050" y="7425" fill="#000000" font-family="Helvetica" font-style="normal" font-weight="bold" font-size="216" text-anchor="middle">Ce:T2</text>
<!-- Text -->
<text xml:space="preserve" x="11700" y="10350" fill="#000000" font-family="Helvetica" font-style="normal" font-weight="bold" font-size="216" text-anchor="middle">Re:t21</text>
<!-- Text -->
<text xml:space="preserve" x="14400" y="10350" fill="#000000" font-family="Helvetica" font-style="normal" font-weight="bold" font-size="216" text-anchor="middle">Re:t22</text>
<!-- Text -->
<text xml:space="preserve" x="13050" y="11475" fill="#000000" font-family="Helvetica" font-style="normal" font-weight="bold" font-size="216" text-anchor="middle">Ce:T3</text>
<!-- Text -->
<text xml:space="preserve" x="14400" y="6300" fill="#000000" font-family="Helvetica" font-style="normal" font-weight="bold" font-size="216" text-anchor="middle">Re:t12</text>
<!-- Text -->
<text xml:space="preserve" x="3600" y="2250" fill="#000000" font-family="Helvetica" font-style="normal" font-weight="bold" font-size="216" text-anchor="middle">Re:r01</text>
<!-- Text -->
<text xml:space="preserve" x="6300" y="2250" fill="#000000" font-family="Helvetica" font-style="normal" font-weight="bold" font-size="216" text-anchor="middle">Re:r02</text>
<!-- Text -->
<text xml:space="preserve" x="4950" y="3375" fill="#000000" font-family="Helvetica" font-style="normal" font-weight="bold" font-size="216" text-anchor="middle">Ce:R1</text>
<!-- Text -->
<text xml:space="preserve" x="3600" y="6300" fill="#000000" font-family="Helvetica" font-style="normal" font-weight="bold" font-size="216" text-anchor="middle">Re:r11</text>
<!-- Text -->
<text xml:space="preserve" x="4950" y="7425" fill="#000000" font-family="Helvetica" font-style="normal" font-weight="bold" font-size="216" text-anchor="middle">Ce:R2</text>
<!-- Text -->
<text xml:space="preserve" x="3600" y="10350" fill="#000000" font-family="Helvetica" font-style="normal" font-weight="bold" font-size="216" text-anchor="middle">Re:r21</text>
<!-- Text -->
<text xml:space="preserve" x="6300" y="10350" fill="#000000" font-family="Helvetica" font-style="normal" font-weight="bold" font-size="216" text-anchor="middle">Re:r22</text>
<!-- Text -->
<text xml:space="preserve" x="4950" y="11475" fill="#000000" font-family="Helvetica" font-style="normal" font-weight="bold" font-size="216" text-anchor="middle">Ce:R3</text>
<!-- Text -->
<text xml:space="preserve" x="6300" y="6300" fill="#000000" font-family="Helvetica" font-style="normal" font-weight="bold" font-size="216" text-anchor="middle">Re:r12</text>
<!-- Text -->
<text xml:space="preserve" x="9000" y="-450" fill="#000000" font-family="Helvetica" font-style="normal" font-weight="bold" font-size="216" text-anchor="middle">Re:rt</text>
<!-- Text -->
<text xml:space="preserve" x="13050" y="-450" fill="#000000" font-family="Helvetica" font-style="normal" font-weight="bold" font-size="216" text-anchor="middle">Ce:T0</text>
<!-- Text -->
<text xml:space="preserve" x="4950" y="-450" fill="#000000" font-family="Helvetica" font-style="normal" font-weight="bold" font-size="216" text-anchor="middle">Ce:R0</text>
<!-- Line -->
<polyline points=" 9225,900 12825,900 12600,1125"
	stroke="#000000" stroke-width="15px"/>
<!-- Line -->
<polyline points=" 12825,2475 11925,3375 12150,3375"
	stroke="#000000" stroke-width="15px"/>
<!-- Line -->
<polyline points=" 11925,3825 12825,4725 12600,4725"
	stroke="#000000" stroke-width="15px"/>
<!-- Line -->
<polyline points=" 13275,4725 14175,3825 14175,4050"
	stroke="#000000" stroke-width="15px"/>
<!-- Line -->
<polyline points=" 14175,3375 13275,2475 13275,2700"
	stroke="#000000" stroke-width="15px"/>
<!-- Line -->
<polyline points=" 11700,3375 11700,2475 11925,2700"
	stroke="#000000" stroke-width="15px"/>
<!-- Line -->
<polyline points=" 14400,3375 14400,2475 14625,2700"
	stroke="#000000" stroke-width="15px"/>
<!-- Line -->
<polyline points=" 13050,4500 13050,3600 13275,3825"
	stroke="#000000" stroke-width="15px"/>
<!-- Line -->
<polyline points=" 10575,3600 11475,3600 11250,3825"
	stroke="#000000" stroke-width="15px"/>
<!-- Line -->
<polyline points=" 14625,3600 15525,3600 15300,3825"
	stroke="#000000" stroke-width="15px"/>
<!-- Line -->
<polyline points=" 12825,6525 11925,7425 12150,7425"
	stroke="#000000" stroke-width="15px"/>
<!-- Line -->
<polyline points=" 11925,7875 12825,8775 12600,8775"
	stroke="#000000" stroke-width="15px"/>
<!-- Line -->
<polyline points=" 13275,8775 14175,7875 14175,8100"
	stroke="#000000" stroke-width="15px"/>
<!-- Line -->
<polyline points=" 14175,7425 13275,6525 13275,6750"
	stroke="#000000" stroke-width="15px"/>
<!-- Line -->
<polyline points=" 13050,6075 13050,5175 13275,5400"
	stroke="#000000" stroke-width="15px"/>
<!-- Line -->
<polyline points=" 11700,7425 11700,6525 11925,6750"
	stroke="#000000" stroke-width="15px"/>
<!-- Line -->
<polyline points=" 14400,7425 14400,6525 14625,6750"
	stroke="#000000" stroke-width="15px"/>
<!-- Line -->
<polyline points=" 13050,8550 13050,7650 13275,7875"
	stroke="#000000" stroke-width="15px"/>
<!-- Line -->
<polyline points=" 10575,7650 11475,7650 11250,7875"
	stroke="#000000" stroke-width="15px"/>
<!-- Line -->
<polyline points=" 14625,7650 15525,7650 15300,7875"
	stroke="#000000" stroke-width="15px"/>
<!-- Line -->
<polyline points=" 12825,10575 11925,11475 12150,11475"
	stroke="#000000" stroke-width="15px"/>
<!-- Line -->
<polyline points=" 11925,11925 12825,12825 12600,12825"
	stroke="#000000" stroke-width="15px"/>
<!-- Line -->
<polyline points=" 13275,12825 14175,11925 14175,12150"
	stroke="#000000" stroke-width="15px"/>
<!-- Line -->
<polyline points=" 14175,11475 13275,10575 13275,10800"
	stroke="#000000" stroke-width="15px"/>
<!-- Line -->
<polyline points=" 13050,10125 13050,9225 13275,9450"
	stroke="#000000" stroke-width="15px"/>
<!-- Line -->
<polyline points=" 11700,11475 11700,10575 11925,10800"
	stroke="#000000" stroke-width="15px"/>
<!-- Line -->
<polyline points=" 14400,11475 14400,10575 14625,10800"
	stroke="#000000" stroke-width="15px"/>
<!-- Line -->
<polyline points=" 13050,12600 13050,11700 13275,11925"
	stroke="#000000" stroke-width="15px"/>
<!-- Line -->
<polyline points=" 10575,11700 11475,11700 11250,11925"
	stroke="#000000" stroke-width="15px"/>
<!-- Line -->
<polyline points=" 14625,11700 15525,11700 15300,11925"
	stroke="#000000" stroke-width="15px"/>
<!-- Line -->
<polyline points=" 13050,2025 13050,1125 13275,1350"
	stroke="#000000" stroke-width="15px"/>
<!-- Line -->
<polyline points=" 13050,675 13050,-225 13275,0"
	stroke="#000000" stroke-width="15px"/>
<!-- Line -->
<polyline points=" 4725,2475 3825,3375 4050,3375"
	stroke="#000000" stroke-width="15px"/>
<!-- Line -->
<polyline points=" 3825,3825 4725,4725 4500,4725"
	stroke="#000000" stroke-width="15px"/>
<!-- Line -->
<polyline points=" 5175,4725 6075,3825 6075,4050"
	stroke="#000000" stroke-width="15px"/>
<!-- Line -->
<polyline points=" 6075,3375 5175,2475 5175,2700"
	stroke="#000000" stroke-width="15px"/>
<!-- Line -->
<polyline points=" 3600,3375 3600,2475 3825,2700"
	stroke="#000000" stroke-width="15px"/>
<!-- Line -->
<polyline points=" 6300,3375 6300,2475 6525,2700"
	stroke="#000000" stroke-width="15px"/>
<!-- Line -->
<polyline points=" 4950,4500 4950,3600 5175,3825"
	stroke="#000000" stroke-width="15px"/>
<!-- Line -->
<polyline points=" 2475,3600 3375,3600 3150,3825"
	stroke="#000000" stroke-width="15px"/>
<!-- Line -->
<polyline points=" 6525,3600 7425,3600 7200,3825"
	stroke="#000000" stroke-width="15px"/>
<!-- Line -->
<polyline points=" 4725,6525 3825,7425 4050,7425"
	stroke="#000000" stroke-width="15px"/>
<!-- Line -->
<polyline points=" 3825,7875 4725,8775 4500,8775"
	stroke="#000000" stroke-width="15px"/>
<!-- Line -->
<polyline points=" 5175,8775 6075,7875 6075,8100"
	stroke="#000000" stroke-width="15px"/>
<!-- Line -->
<polyline points=" 6075,7425 5175,6525 5175,6750"
	stroke="#000000" stroke-width="15px"/>
<!-- Line -->
<polyline points=" 4950,6075 4950,5175 5175,5400"
	stroke="#000000" stroke-width="15px"/>
<!-- Line -->
<polyline points=" 3600,7425 3600,6525 3825,6750"
	stroke="#000000" stroke-width="15px"/>
<!-- Line -->
<polyline points=" 6300,7425 6300,6525 6525,6750"
	stroke="#000000" stroke-width="15px"/>
<!-- Line -->
<polyline points=" 4950,8550 4950,7650 5175,7875"
	stroke="#000000" stroke-width="15px"/>
<!-- Line -->
<polyline points=" 2475,7650 3375,7650 3150,7875"
	stroke="#000000" stroke-width="15px"/>
<!-- Line -->
<polyline points=" 6525,7650 7425,7650 7200,7875"
	stroke="#000000" stroke-width="15px"/>
<!-- Line -->
<polyline points=" 4725,10575 3825,11475 4050,11475"
	stroke="#000000" stroke-width="15px"/>
<!-- Line -->
<polyline points=" 3825,11925 4725,12825 4500,12825"
	stroke="#000000" stroke-width="15px"/>
<!-- Line -->
<polyline points=" 5175,12825 6075,11925 6075,12150"
	stroke="#000000" stroke-width="15px"/>
<!-- Line -->
<polyline points=" 6075,11475 5175,10575 5175,10800"
	stroke="#000000" stroke-width="15px"/>
<!-- Line -->
<polyline points=" 4950,10125 4950,9225 5175,9450"
	stroke="#000000" stroke-width="15px"/>
<!-- Line -->
<polyline points=" 3600,11475 3600,10575 3825,10800"
	stroke="#000000" stroke-width="15px"/>
<!-- Line -->
<polyline points=" 6300,11475 6300,10575 6525,10800"
	stroke="#000000" stroke-width="15px"/>
<!-- Line -->
<polyline points=" 4950,12600 4950,11700 5175,11925"
	stroke="#000000" stroke-width="15px"/>
<!-- Line -->
<polyline points=" 2475,11700 3375,11700 3150,11925"
	stroke="#000000" stroke-width="15px"/>
<!-- Line -->
<polyline points=" 6525,11700 7425,11700 7200,11925"
	stroke="#000000" stroke-width="15px"/>
<!-- Line -->
<polyline points=" 4950,2025 4950,1125 5175,1350"
	stroke="#000000" stroke-width="15px"/>
<!-- Line -->
<polyline points=" 2250,7425 2250,3825 2475,4050"
	stroke="#000000" stroke-width="15px"/>
<!-- Line -->
<polyline points=" 2250,11475 2250,7875 2475,8100"
	stroke="#000000" stroke-width="15px"/>
<!-- Line -->
<polyline points=" 7650,3825 7650,7425 7875,7200"
	stroke="#000000" stroke-width="15px"/>
<!-- Line -->
<polyline points=" 7650,7875 7650,11475 7875,11250"
	stroke="#000000" stroke-width="15px"/>
<!-- Line -->
<polyline points=" 10350,7425 10350,3825 10575,4050"
	stroke="#000000" stroke-width="15px"/>
<!-- Line -->
<polyline points=" 10350,11475 10350,7875 10575,8100"
	stroke="#000000" stroke-width="15px"/>
<!-- Line -->
<polyline points=" 15750,3825 15750,7425 15975,7200"
	stroke="#000000" stroke-width="15px"/>
<!-- Line -->
<polyline points=" 15750,7875 15750,11475 15975,11250"
	stroke="#000000" stroke-width="15px"/>
<!-- Line -->
<polyline points=" 5175,900 8775,900 8550,1125"
	stroke="#000000" stroke-width="15px"/>
<!-- Line -->
<polyline points=" 9000,675 9000,-225 9225,0"
	stroke="#000000" stroke-width="15px"/>
<!-- Line -->
<polyline points=" 4950,675 4950,-225 5175,0"
	stroke="#000000" stroke-width="15px"/>
<!-- Line -->
<polyline points=" 2250,12825 2250,11925 2475,12150"
	stroke="#000000" stroke-width="15px"/>
<!-- Line -->
<polyline points=" 2250,14175 2250,13275 2475,13500"
	stroke="#000000" stroke-width="15px"/>
<!-- Line -->
<polyline points=" 7650,11925 7650,14175 7875,13950"
	stroke="#000000" stroke-width="15px"/>
<!-- Line -->
<polyline points=" 15750,11925 15750,14175 15975,13950"
	stroke="#000000" stroke-width="15px"/>
<!-- Line -->
<polyline points=" 1125,13050 2025,13050 1800,13275"
	stroke="#000000" stroke-width="15px"/>
<!-- Line -->
<polyline points=" 2475,14175 10125,14175 9900,14400"
	stroke="#000000" stroke-width="8px"/>
<!-- Line -->
<polyline points=" 2250,14625 2250,15525 2475,15300"
	stroke="#000000" stroke-width="15px"/>
<!-- Line -->
<polyline points=" 7650,14625 7650,15525 7875,15300"
	stroke="#000000" stroke-width="15px"/>
<!-- Line -->
<polyline points=" 15525,14400 7875,14400 8100,14625"
	stroke="#000000" stroke-width="8px"/>
<!-- Line -->
<polyline points=" 10350,14175 10350,13275 10575,13500"
	stroke="#000000" stroke-width="15px"/>
<!-- Line -->
<polyline points=" 10350,12825 10350,11925 10575,12150"
	stroke="#000000" stroke-width="15px"/>
<!-- Line -->
<polyline points=" 9225,13050 10125,13050 9900,13275"
	stroke="#000000" stroke-width="15px"/>
</g>
</svg>
