<?xml version="1.0" standalone="no"?>
<!-- Creator: fig2dev Version 3.2.6a -->
<!-- CreationDate: 2020-01-17 11:56:13 -->
<!-- Magnification: 1.05 -->
<svg	xmlns="http://www.w3.org/2000/svg"
	xmlns:xlink="http://www.w3.org/1999/xlink"
	width="273pt" height="216pt"
	viewBox="2003 1328 4319 3419">
<g fill="none">
<!-- Line -->
<polyline points=" 5175,1800 5175,2250"
	stroke="#000000" stroke-width="15px"/>
<!-- Line -->
<rect x="3375" y="3375" width="1575" height="1350"
	stroke="#000000" stroke-width="15px"/>
<!-- Line -->
<defs>
<clipPath id="cp0">
	<path clip-rule="evenodd" d="M 2003,1328 H 6322 V 4747 H 2003 z
		M 3239,3570 3239,3630 3386,3611 3386,3590z"/>
</clipPath>
</defs>
<polyline points=" 2475,3600 3375,3600" clip-path="url(#cp0)"
	stroke="#000000" stroke-width="15px"/>
<!-- Forward arrow to point 3375,3600 -->
<polygon points=" 3239,3630 3359,3600 3239,3570 3239,3630"
	stroke="#000000" stroke-width="8px" stroke-miterlimit="8" fill="#000000"/>
<!-- Line -->
<defs>
<clipPath id="cp1">
	<path clip-rule="evenodd" d="M 2003,1328 H 6322 V 4747 H 2003 z
		M 5714,3570 5714,3630 5861,3611 5861,3590z"/>
</clipPath>
</defs>
<polyline points=" 4950,3600 5850,3600" clip-path="url(#cp1)"
	stroke="#000000" stroke-width="15px"/>
<!-- Forward arrow to point 5850,3600 -->
<polygon points=" 5714,3630 5834,3600 5714,3570 5714,3630"
	stroke="#000000" stroke-width="8px" stroke-miterlimit="8" fill="#000000"/>
<!-- Line -->
<defs>
<clipPath id="cp2">
	<path clip-rule="evenodd" d="M 2003,1328 H 6322 V 4747 H 2003 z
		M 2611,4530 2611,4470 2465,4490 2465,4511z"/>
</clipPath>
</defs>
<polyline points=" 3375,4500 2475,4500" clip-path="url(#cp2)"
	stroke="#000000" stroke-width="15px"/>
<!-- Forward arrow to point 2475,4500 -->
<polygon points=" 2611,4470 2491,4500 2611,4530 2611,4470"
	stroke="#000000" stroke-width="8px" stroke-miterlimit="8" fill="#000000"/>
<!-- Line -->
<defs>
<clipPath id="cp3">
	<path clip-rule="evenodd" d="M 2003,1328 H 6322 V 4747 H 2003 z
		M 5086,4530 5086,4470 4940,4490 4940,4511z"/>
</clipPath>
</defs>
<polyline points=" 5850,4500 4950,4500" clip-path="url(#cp3)"
	stroke="#000000" stroke-width="15px"/>
<!-- Forward arrow to point 4950,4500 -->
<polygon points=" 5086,4470 4966,4500 5086,4530 5086,4470"
	stroke="#000000" stroke-width="8px" stroke-miterlimit="8" fill="#000000"/>
<!-- Line -->
<polyline points=" 2025,2025 3150,2025 2925,2250"
	stroke="#000000" stroke-width="15px"/>
<!-- Line -->
<polyline points=" 5175,2025 6300,2025 6075,2250"
	stroke="#000000" stroke-width="15px"/>
<!-- Line -->
<polyline points=" 2025,1800 2025,2250"
	stroke="#000000" stroke-width="15px"/>
<!-- Line -->
<rect x="3375" y="1350" width="1575" height="1350"
	stroke="#000000" stroke-width="15px"/>
<!-- Text -->
<text xml:space="preserve" x="4185" y="2115" fill="#000000" font-family="Times" font-style="normal" font-weight="normal" font-size="240" text-anchor="middle">Bond graph</text>
<!-- Text -->
<text xml:space="preserve" x="5400" y="3375" fill="#000000" font-family="Times" font-style="normal" font-weight="normal" font-size="240" text-anchor="middle">y<tspan font-size="160" baseline-shift="sub">2</tspan>=v<tspan font-size="160" baseline-shift="sub">2</tspan></text>
<!-- Text -->
<text xml:space="preserve" x="2925" y="3375" fill="#000000" font-family="Times" font-style="normal" font-weight="normal" font-size="240" text-anchor="middle">u<tspan font-size="160" baseline-shift="sub">1</tspan>=v<tspan font-size="160" baseline-shift="sub">1</tspan></text>
<!-- Text -->
<text xml:space="preserve" x="5400" y="4275" fill="#000000" font-family="Times" font-style="normal" font-weight="normal" font-size="240" text-anchor="middle">u<tspan font-size="160" baseline-shift="sub">2</tspan>=e<tspan font-size="160" baseline-shift="sub">2</tspan></text>
<!-- Text -->
<text xml:space="preserve" x="2925" y="4275" fill="#000000" font-family="Times" font-style="normal" font-weight="normal" font-size="240" text-anchor="middle">y<tspan font-size="160" baseline-shift="sub">1</tspan>=e<tspan font-size="160" baseline-shift="sub">1</tspan></text>
<!-- Text -->
<text xml:space="preserve" x="4185" y="4140" fill="#000000" font-family="Times" font-style="normal" font-weight="normal" font-size="240" text-anchor="middle">Transfer fun.</text>
<!-- Text -->
<text xml:space="preserve" x="2475" y="2475" fill="#000000" font-family="Times" font-style="normal" font-weight="normal" font-size="240" text-anchor="middle">v<tspan font-size="160" baseline-shift="sub">1</tspan></text>
<!-- Text -->
<text xml:space="preserve" x="2475" y="1800" fill="#000000" font-family="Times" font-style="normal" font-weight="normal" font-size="240" text-anchor="middle">e<tspan font-size="160" baseline-shift="sub">1</tspan></text>
<!-- Text -->
<text xml:space="preserve" x="5850" y="1800" fill="#000000" font-family="Times" font-style="normal" font-weight="normal" font-size="240" text-anchor="middle">e<tspan font-size="160" baseline-shift="sub">2</tspan></text>
<!-- Text -->
<text xml:space="preserve" x="5850" y="2475" fill="#000000" font-family="Times" font-style="normal" font-weight="normal" font-size="240" text-anchor="middle">v<tspan font-size="160" baseline-shift="sub">2</tspan></text>
</g>
</svg>
