<?xml version="1.0" standalone="no"?>
<!-- Creator: fig2dev Version 3.2.6a -->
<!-- CreationDate: 2019-10-11 12:16:52 -->
<!-- Magnification: 1.05 -->
<svg	xmlns="http://www.w3.org/2000/svg"
	xmlns:xlink="http://www.w3.org/1999/xlink"
	width="659pt" height="655pt"
	viewBox="-984 -2047 10456 10394">
<g fill="none">
<!-- Line -->
<rect x="-900" y="-2025" width="10350" height="10350" rx="105"
	stroke="#ffd600" stroke-width="15px"/>
<!-- Text -->
<text xml:space="preserve" x="6300" y="3240" fill="#000000" font-family="Helvetica" font-style="normal" font-weight="bold" font-size="216" text-anchor="middle">0</text>
<!-- Text -->
<text xml:space="preserve" x="1800" y="2115" fill="#000000" font-family="Helvetica" font-style="normal" font-weight="bold" font-size="216" text-anchor="middle">1</text>
<!-- Text -->
<g transform="translate(5085,2025) rotate(-270)" >
<text xml:space="preserve" x="0" y="0" fill="#000000" font-family="Helvetica" font-style="normal" font-weight="bold" font-size="216" text-anchor="middle">Re:r2</text>
</g><!-- Text -->
<text xml:space="preserve" x="4050" y="2115" fill="#000000" font-family="Helvetica" font-style="normal" font-weight="bold" font-size="216" text-anchor="middle">0</text>
<!-- Text -->
<text xml:space="preserve" x="675" y="2115" fill="#000000" font-family="Helvetica" font-style="normal" font-weight="bold" font-size="216" text-anchor="middle">0</text>
<!-- Text -->
<text xml:space="preserve" x="7425" y="2115" fill="#000000" font-family="Helvetica" font-style="normal" font-weight="bold" font-size="216" text-anchor="middle">0</text>
<!-- Text -->
<text xml:space="preserve" x="6300" y="4365" fill="#000000" font-family="Helvetica" font-style="normal" font-weight="bold" font-size="216" text-anchor="middle">1</text>
<!-- Text -->
<g transform="translate(5265,4275) rotate(-90)" >
<text xml:space="preserve" x="0" y="0" fill="#000000" font-family="Helvetica" font-style="normal" font-weight="bold" font-size="216" text-anchor="middle">Re:r3</text>
</g><!-- Text -->
<text xml:space="preserve" x="4050" y="4365" fill="#000000" font-family="Helvetica" font-style="normal" font-weight="bold" font-size="216" text-anchor="middle">0</text>
<!-- Text -->
<text xml:space="preserve" x="1800" y="4365" fill="#000000" font-family="Helvetica" font-style="normal" font-weight="bold" font-size="216" text-anchor="middle">1</text>
<!-- Text -->
<text xml:space="preserve" x="1800" y="3240" fill="#000000" font-family="Helvetica" font-style="normal" font-weight="bold" font-size="216" text-anchor="middle">0</text>
<!-- Text -->
<text xml:space="preserve" x="675" y="4365" fill="#000000" font-family="Helvetica" font-style="normal" font-weight="bold" font-size="216" text-anchor="middle">0</text>
<!-- Text -->
<text xml:space="preserve" x="675" y="3240" fill="#000000" font-family="Helvetica" font-style="normal" font-weight="bold" font-size="216" text-anchor="middle">0</text>
<!-- Text -->
<text xml:space="preserve" x="7425" y="3240" fill="#000000" font-family="Helvetica" font-style="normal" font-weight="bold" font-size="216" text-anchor="middle">0</text>
<!-- Text -->
<g transform="translate(2835,2025) rotate(-270)" >
<text xml:space="preserve" x="0" y="0" fill="#000000" font-family="Helvetica" font-style="normal" font-weight="bold" font-size="216" text-anchor="middle">Re:r1</text>
</g><!-- Text -->
<g transform="translate(3015,4275) rotate(-90)" >
<text xml:space="preserve" x="0" y="0" fill="#000000" font-family="Helvetica" font-style="normal" font-weight="bold" font-size="216" text-anchor="middle">Re:r4</text>
</g><!-- Text -->
<text xml:space="preserve" x="4050" y="-135" fill="#000000" font-family="Helvetica" font-style="normal" font-weight="bold" font-size="216" text-anchor="middle">0</text>
<!-- Text -->
<text xml:space="preserve" x="4050" y="6615" fill="#000000" font-family="Helvetica" font-style="normal" font-weight="bold" font-size="216" text-anchor="middle">0</text>
<!-- Text -->
<text xml:space="preserve" x="675" y="900" fill="#000000" font-family="Helvetica" font-style="normal" font-weight="bold" font-size="216" text-anchor="middle">Ce:ATP</text>
<!-- Text -->
<text xml:space="preserve" x="7425" y="900" fill="#000000" font-family="Helvetica" font-style="normal" font-weight="bold" font-size="216" text-anchor="middle">Ce:ADP</text>
<!-- Text -->
<text xml:space="preserve" x="4050" y="900" fill="#000000" font-family="Helvetica" font-style="normal" font-weight="bold" font-size="216" text-anchor="middle">Ce:C1</text>
<!-- Text -->
<text xml:space="preserve" x="6300" y="2115" fill="#000000" font-family="Helvetica" font-style="normal" font-weight="bold" font-size="216" text-anchor="middle">1</text>
<!-- Text -->
<text xml:space="preserve" x="4050" y="5625" fill="#000000" font-family="Helvetica" font-style="normal" font-weight="bold" font-size="216" text-anchor="middle">Ce:C2</text>
<!-- Text -->
<text xml:space="preserve" x="675" y="5625" fill="#000000" font-family="Helvetica" font-style="normal" font-weight="bold" font-size="216" text-anchor="middle">Ce:P</text>
<!-- Text -->
<text xml:space="preserve" x="-585" y="3240" fill="#000000" font-family="Helvetica" font-style="normal" font-weight="bold" font-size="216" text-anchor="middle">Ce:M</text>
<!-- Text -->
<text xml:space="preserve" x="8820" y="3240" fill="#000000" font-family="Helvetica" font-style="normal" font-weight="bold" font-size="216" text-anchor="middle">Ce:MP</text>
<!-- Text -->
<text xml:space="preserve" x="4050" y="-1350" fill="#000000" font-family="Helvetica" font-style="normal" font-weight="bold" font-size="216" text-anchor="middle">Ce:E1</text>
<!-- Text -->
<text xml:space="preserve" x="4050" y="7875" fill="#000000" font-family="Helvetica" font-style="normal" font-weight="bold" font-size="216" text-anchor="middle">Ce:E2</text>
<!-- Line -->
<polyline points=" 2025,2025 2700,2025 2475,2250"
	stroke="#000000" stroke-width="15px"/>
<!-- Line -->
<polyline points=" 3150,2025 3825,2025 3600,2250"
	stroke="#000000" stroke-width="15px"/>
<!-- Line -->
<polyline points=" 6075,1800 4275,0 4275,225"
	stroke="#000000" stroke-width="15px"/>
<!-- Line -->
<polyline points=" 3825,0 2025,1800 2250,1800"
	stroke="#000000" stroke-width="15px"/>
<!-- Line -->
<polyline points=" 4050,1800 4050,1125 4275,1350"
	stroke="#000000" stroke-width="15px"/>
<!-- Line -->
<polyline points=" 900,2025 1575,2025 1350,2250"
	stroke="#000000" stroke-width="15px"/>
<!-- Line -->
<polyline points=" 6525,2025 7200,2025 6975,2250"
	stroke="#000000" stroke-width="15px"/>
<!-- Line -->
<polyline points=" 7425,1800 7425,1125 7650,1350"
	stroke="#000000" stroke-width="15px"/>
<!-- Line -->
<polyline points=" 5400,2025 6075,2025 5850,2250"
	stroke="#000000" stroke-width="15px"/>
<!-- Line -->
<polyline points=" 4950,4275 4275,4275 4500,4500"
	stroke="#000000" stroke-width="15px"/>
<!-- Line -->
<polyline points=" 3825,4275 3150,4275 3375,4500"
	stroke="#000000" stroke-width="15px"/>
<!-- Line -->
<polyline points=" 2700,4275 2025,4275 2250,4500"
	stroke="#000000" stroke-width="15px"/>
<!-- Line -->
<polyline points=" 1800,4050 1800,3375 2025,3600"
	stroke="#000000" stroke-width="15px"/>
<!-- Line -->
<polyline points=" 1800,2925 1800,2250 2025,2475"
	stroke="#000000" stroke-width="15px"/>
<!-- Line -->
<polyline points=" 1575,4275 900,4275 1125,4500"
	stroke="#000000" stroke-width="15px"/>
<!-- Line -->
<polyline points=" 2025,4500 3825,6300 3600,6300"
	stroke="#000000" stroke-width="15px"/>
<!-- Line -->
<polyline points=" 4275,6300 6075,4500 6075,4725"
	stroke="#000000" stroke-width="15px"/>
<!-- Line -->
<polyline points=" 4050,4500 4050,5175 4275,4950"
	stroke="#000000" stroke-width="15px"/>
<!-- Line -->
<polyline points=" 675,4500 675,5175 900,4950"
	stroke="#000000" stroke-width="15px"/>
<!-- Line -->
<polyline points=" 900,3150 1575,3150 1350,3375"
	stroke="#000000" stroke-width="15px"/>
<!-- Line -->
<polyline points=" 6525,3150 7200,3150 6975,3375"
	stroke="#000000" stroke-width="15px"/>
<!-- Line -->
<polyline points=" 450,3150 -225,3150 0,3375"
	stroke="#000000" stroke-width="15px"/>
<!-- Line -->
<polyline points=" 7650,3150 8325,3150 8100,3375"
	stroke="#000000" stroke-width="15px"/>
<!-- Line -->
<polyline points=" 6075,4275 5400,4275 5625,4500"
	stroke="#000000" stroke-width="15px"/>
<!-- Line -->
<polyline points=" 675,1800 675,1125 900,1350"
	stroke="#000000" stroke-width="15px"/>
<!-- Line -->
<polyline points=" 4050,-450 4050,-1125 4275,-900"
	stroke="#000000" stroke-width="15px"/>
<!-- Line -->
<polyline points=" 4050,6750 4050,7425 4275,7200"
	stroke="#000000" stroke-width="15px"/>
<!-- Line -->
<polyline points=" 4275,2025 4950,2025 4725,2250"
	stroke="#000000" stroke-width="15px"/>
<!-- Line -->
<polyline points=" 6300,2250 6300,2925 6525,2700"
	stroke="#000000" stroke-width="15px"/>
<!-- Line -->
<polyline points=" 6300,3375 6300,4050 6525,3825"
	stroke="#000000" stroke-width="15px"/>
</g>
</svg>
