<?xml version="1.0" standalone="no"?>
<!-- Creator: fig2dev Version 3.2.6a -->
<!-- CreationDate: 2020-03-02 11:44:46 -->
<!-- Magnification: 1.05 -->
<svg	xmlns="http://www.w3.org/2000/svg"
	xmlns:xlink="http://www.w3.org/1999/xlink"
	width="638pt" height="145pt"
	viewBox="1283 435 10118 2291">
<g fill="none">
<!-- Line -->
<polyline points=" 1575,2025 1575,900 1800,1125"
	stroke="#000000" stroke-width="15px"/>
<!-- Line -->
<polyline points=" 1800,2250 2925,2250 2700,2475"
	stroke="#000000" stroke-width="15px"/>
<!-- Line -->
<polyline points=" 3375,2250 4500,2250 4275,2475"
	stroke="#000000" stroke-width="15px"/>
<!-- Line -->
<polyline points=" 4725,2025 4725,900 4950,1125"
	stroke="#000000" stroke-width="15px"/>
<!-- Line -->
<polyline points=" 4950,2250 6075,2250 5850,2475"
	stroke="#000000" stroke-width="15px"/>
<!-- Line -->
<polyline points=" 6525,2250 7650,2250 7425,2475"
	stroke="#000000" stroke-width="15px"/>
<!-- Line -->
<polyline points=" 7875,2025 7875,900 8100,1125"
	stroke="#000000" stroke-width="15px"/>
<!-- Line -->
<polyline points=" 8100,2250 9225,2250 9000,2475"
	stroke="#000000" stroke-width="15px"/>
<!-- Line -->
<polyline points=" 9675,2250 10800,2250 10575,2475"
	stroke="#000000" stroke-width="15px"/>
<!-- Line -->
<polyline points=" 11025,2025 11025,900 11250,1125"
	stroke="#000000" stroke-width="15px"/>
<!-- Text -->
<text xml:space="preserve" x="1575" y="2385" fill="#000000" font-family="Times" font-style="normal" font-weight="normal" font-size="240" text-anchor="middle">0</text>
<!-- Text -->
<text xml:space="preserve" x="1575" y="675" fill="#000000" font-family="Times" font-style="normal" font-weight="normal" font-size="240" text-anchor="middle">Ce:B</text>
<!-- Text -->
<g transform="translate(3060,2250) rotate(-270)" >
<text xml:space="preserve" x="0" y="0" fill="#000000" font-family="Times" font-style="normal" font-weight="normal" font-size="240" text-anchor="middle">Re:r_0</text>
</g><!-- Text -->
<text xml:space="preserve" x="4725" y="2385" fill="#000000" font-family="Times" font-style="normal" font-weight="normal" font-size="240" text-anchor="middle">0</text>
<!-- Text -->
<text xml:space="preserve" x="4725" y="675" fill="#000000" font-family="Times" font-style="normal" font-weight="normal" font-size="240" text-anchor="middle">Ce:B1</text>
<!-- Text -->
<g transform="translate(6210,2250) rotate(-270)" >
<text xml:space="preserve" x="0" y="0" fill="#000000" font-family="Times" font-style="normal" font-weight="normal" font-size="240" text-anchor="middle">Re:r_1</text>
</g><!-- Text -->
<text xml:space="preserve" x="7875" y="2385" fill="#000000" font-family="Times" font-style="normal" font-weight="normal" font-size="240" text-anchor="middle">0</text>
<!-- Text -->
<text xml:space="preserve" x="7875" y="675" fill="#000000" font-family="Times" font-style="normal" font-weight="normal" font-size="240" text-anchor="middle">Ce:P</text>
<!-- Text -->
<g transform="translate(9360,2250) rotate(-270)" >
<text xml:space="preserve" x="0" y="0" fill="#000000" font-family="Times" font-style="normal" font-weight="normal" font-size="240" text-anchor="middle">Re:r_2</text>
</g><!-- Text -->
<text xml:space="preserve" x="11025" y="2385" fill="#000000" font-family="Times" font-style="normal" font-weight="normal" font-size="240" text-anchor="middle">0</text>
<!-- Text -->
<text xml:space="preserve" x="11025" y="675" fill="#000000" font-family="Times" font-style="normal" font-weight="normal" font-size="240" text-anchor="middle">Ce:B0</text>
</g>
</svg>
